<?xml version="1.0" encoding="UTF-8" standalone="no"?>
<!-- Created with Inkscape (http://www.inkscape.org/) -->

<svg
   width="64pt"
   height="64pt"
   viewBox="0 0 22.577778 22.577778"
   version="1.1"
   id="svg831"
   inkscape:version="1.1.1 (3bf5ae0d25, 2021-09-20)"
   sodipodi:docname="Export.svg"
   inkscape:export-filename="C:\Users\User\Desktop\CARLOS PROJECT\5. MAY 1\Done\Flat\18 - Swedish Wall.png"
   inkscape:export-xdpi="576"
   inkscape:export-ydpi="576"
   xmlns:inkscape="http://www.inkscape.org/namespaces/inkscape"
   xmlns:sodipodi="http://sodipodi.sourceforge.net/DTD/sodipodi-0.dtd"
   xmlns="http://www.w3.org/2000/svg"
   xmlns:svg="http://www.w3.org/2000/svg"
   xmlns:rdf="http://www.w3.org/1999/02/22-rdf-syntax-ns#"
   xmlns:cc="http://creativecommons.org/ns#"
   xmlns:dc="http://purl.org/dc/elements/1.1/">
  <defs
     id="defs825">
    <pattern
       id="EMFhbasepattern"
       patternUnits="userSpaceOnUse"
       width="6"
       height="6"
       x="0"
       y="0" />
    <pattern
       id="EMFhbasepattern-9"
       patternUnits="userSpaceOnUse"
       width="6"
       height="6"
       x="0"
       y="0" />
    <pattern
       id="EMFhbasepattern-0"
       patternUnits="userSpaceOnUse"
       width="6"
       height="6"
       x="0"
       y="0" />
    <pattern
       id="EMFhbasepattern-7"
       patternUnits="userSpaceOnUse"
       width="6"
       height="6"
       x="0"
       y="0" />
    <pattern
       id="EMFhbasepattern-2"
       patternUnits="userSpaceOnUse"
       width="6"
       height="6"
       x="0"
       y="0" />
    <pattern
       id="EMFhbasepattern-98"
       patternUnits="userSpaceOnUse"
       width="6"
       height="6"
       x="0"
       y="0" />
    <pattern
       id="EMFhbasepattern-6"
       patternUnits="userSpaceOnUse"
       width="6"
       height="6"
       x="0"
       y="0" />
    <pattern
       id="EMFhbasepattern-01"
       patternUnits="userSpaceOnUse"
       width="6"
       height="6"
       x="0"
       y="0" />
    <pattern
       id="EMFhbasepattern-07"
       patternUnits="userSpaceOnUse"
       width="6"
       height="6"
       x="0"
       y="0" />
    <pattern
       id="EMFhbasepattern-8"
       patternUnits="userSpaceOnUse"
       width="6"
       height="6"
       x="0"
       y="0" />
    <pattern
       id="EMFhbasepattern-4"
       patternUnits="userSpaceOnUse"
       width="6"
       height="6"
       x="0"
       y="0" />
    <pattern
       id="EMFhbasepattern-40"
       patternUnits="userSpaceOnUse"
       width="6"
       height="6"
       x="0"
       y="0" />
    <pattern
       id="EMFhbasepattern-08"
       patternUnits="userSpaceOnUse"
       width="6"
       height="6"
       x="0"
       y="0" />
    <pattern
       id="EMFhbasepattern-04"
       patternUnits="userSpaceOnUse"
       width="6"
       height="6"
       x="0"
       y="0" />
    <pattern
       id="EMFhbasepattern-014"
       patternUnits="userSpaceOnUse"
       width="6"
       height="6"
       x="0"
       y="0" />
    <pattern
       id="EMFhbasepattern-27"
       patternUnits="userSpaceOnUse"
       width="6"
       height="6"
       x="0"
       y="0" />
    <pattern
       id="EMFhbasepattern-09"
       patternUnits="userSpaceOnUse"
       width="6"
       height="6"
       x="0"
       y="0" />
    <pattern
       id="EMFhbasepattern-5"
       patternUnits="userSpaceOnUse"
       width="6"
       height="6"
       x="0"
       y="0" />
    <pattern
       id="EMFhbasepattern-018"
       patternUnits="userSpaceOnUse"
       width="6"
       height="6"
       x="0"
       y="0" />
  </defs>
  <sodipodi:namedview
     id="base"
     pagecolor="#ffffff"
     bordercolor="#666666"
     borderopacity="1.0"
     inkscape:pageopacity="0.0"
     inkscape:pageshadow="2"
     inkscape:zoom="6.5876941"
     inkscape:cx="25.198499"
     inkscape:cy="49.258511"
     inkscape:document-units="pt"
     inkscape:current-layer="layer1"
     showgrid="false"
     units="pt"
     inkscape:window-width="1920"
     inkscape:window-height="1001"
     inkscape:window-x="-9"
     inkscape:window-y="-9"
     inkscape:window-maximized="1"
     inkscape:pagecheckerboard="true"
     inkscape:showpageshadow="false"
     inkscape:object-paths="true"
     inkscape:snap-intersection-paths="true"
     inkscape:snap-smooth-nodes="true"
     inkscape:snap-midpoints="true"
     showguides="true"
     inkscape:snap-bbox="true"
     inkscape:bbox-nodes="true"
     inkscape:snap-nodes="false"
     inkscape:snap-global="true">
    <inkscape:grid
       type="xygrid"
       id="grid1378" />
    <sodipodi:guide
       position="0.97013831,21.607643"
       orientation="78.000048,0"
       id="guide1380"
       inkscape:locked="false" />
    <sodipodi:guide
       position="0.97013831,0.97013129"
       orientation="0,78.000005"
       id="guide1382"
       inkscape:locked="false" />
    <sodipodi:guide
       position="21.607639,0.97013129"
       orientation="-78.000048,0"
       id="guide1384"
       inkscape:locked="false" />
    <sodipodi:guide
       position="21.607639,21.607643"
       orientation="0,-78.000005"
       id="guide1386"
       inkscape:locked="false" />
  </sodipodi:namedview>
  <metadata
     id="metadata828">
    <rdf:RDF>
      <cc:Work
         rdf:about="">
        <dc:format>image/svg+xml</dc:format>
        <dc:type
           rdf:resource="http://purl.org/dc/dcmitype/StillImage" />
      </cc:Work>
    </rdf:RDF>
  </metadata>
  <g
     inkscape:label="Icon"
     inkscape:groupmode="layer"
     id="layer1"
     transform="translate(0,-274.42223)">
    <g
       id="g158778"
       style="display:inline;stroke-width:0.803736"
       transform="matrix(1.24419,0,0,1.24419,-75.148294,-112.78326)">
      <path
         style="color:#000000;fill:#c8dae5;stroke-width:0.803736;stroke-linecap:round;stroke-linejoin:round;-inkscape-stroke:none"
         d="m 75.740234,314.5957 a 0.26460996,0.26460996 0 0 0 -0.263672,0.25977 l -0.01563,1.05859 a 0.26460996,0.26460996 0 0 0 0.263672,0.26758 h 0.677735 c 0.42389,0 0.75,-0.36964 0.75,-0.79297 0,-0.42332 -0.326111,-0.79297 -0.75,-0.79297 z"
         id="path87689" />
      <path
         id="path150306"
         style="color:#000000;fill:#b0c3d3;fill-opacity:1;stroke-width:3.03774;stroke-linecap:round;stroke-linejoin:round;-inkscape-stroke:none"
         d="m 286.26172,130.50391 a 1.0001006,1.0001006 0 0 0 -0.9961,0.98047 l -0.0156,1.01953 h 1.51562 c 1.60211,0 2.83399,1.39614 2.83399,2.99609 0,0.31292 -0.0489,0.61778 -0.13672,0.90625 1.24863,-0.33516 2.13672,-1.54793 2.13672,-2.90625 0,-1.59995 -1.23188,-2.99609 -2.83399,-2.99609 z"
         transform="matrix(0.26458334,0,0,0.26458334,0,280.06666)" />
      <path
         style="color:#000000;fill:#394d5c;stroke-width:0.803736;stroke-linecap:round;stroke-linejoin:round;-inkscape-stroke:none"
         d="m 74.242187,314.19727 a 0.26460996,0.26460996 0 0 0 -0.265625,0.26562 v 1.85156 a 0.26460996,0.26460996 0 0 0 0.265625,0.26563 h 1.013672 c 0.423878,0 0.75,-0.37161 0.75,-0.79492 v -0.79297 c 0,-0.42332 -0.326129,-0.79492 -0.75,-0.79492 z"
         id="path87701" />
      <path
         id="path149207"
         style="color:#000000;fill:#143441;fill-opacity:1;stroke-width:3.03774;stroke-linecap:round;stroke-linejoin:round;-inkscape-stroke:none"
         d="m 280.59961,128.99805 a 1.0001006,1.0001006 0 0 0 -1.00391,1.0039 v 0.9961 h 2.83594 c 1.60203,0 2.83398,1.40395 2.83398,3.0039 V 137 c 0,0.31421 -0.0462,0.62018 -0.13476,0.91016 1.24788,-0.33731 2.13476,-1.5524 2.13476,-2.91016 v -2.99805 c 0,-1.59995 -1.23195,-3.0039 -2.83398,-3.0039 z"
         transform="matrix(0.26458334,0,0,0.26458334,0,280.06666)" />
      <path
         style="color:#000000;fill:#394d5c;stroke-width:0.803736;stroke-linecap:round;stroke-linejoin:round;-inkscape-stroke:none"
         d="m 73.800781,313.00781 c -0.423889,0 -0.75,0.36965 -0.75,0.79297 v 3.17578 c 0,0.42333 0.326111,0.79297 0.75,0.79297 h 0.242188 c 0.557837,0 0.992187,-0.48915 0.992187,-1.05859 v -2.64453 c 0,-0.56946 -0.434354,-1.0586 -0.992187,-1.0586 z"
         id="path87695" />
      <path
         id="path89483"
         style="color:#000000;fill:#dc1c4b;stroke-width:3.03774;stroke-linecap:round;stroke-linejoin:round;-inkscape-stroke:none"
         d="m 236.57422,147.29688 a 1.0001006,1.0001006 0 0 0 -1.00391,0.99609 V 180 c 0,0.35216 0.0656,0.68846 0.17969,1.00391 h 53.64062 c 0.11354,-0.31545 0.17969,-0.65175 0.17969,-1.00391 v -31.70703 a 1.0001006,1.0001006 0 0 0 -0.99804,-0.99609 z"
         transform="matrix(0.26458334,0,0,0.26458334,0,280.06666)" />
      <path
         id="path93884"
         style="color:#000000;fill:#b01d47;fill-opacity:1;stroke-width:3.03774;stroke-linecap:round;stroke-linejoin:round;-inkscape-stroke:none"
         d="m 285.57031,159.13554 v 21.86837 h 3.82031 c 0.11355,-0.31545 0.17969,-0.65175 0.17969,-1.00391 v -31.70703 c -0.002,-0.54997 -0.44807,-0.99496 -0.99804,-0.99609 h -51.99805 c -0.55226,-0.002 -1.0017,0.44383 -1.00391,0.99609 v 3.00391 h 42.16134 a 7.8386607,7.8386607 45 0 1 7.83866,7.83866 z"
         transform="matrix(0.26458334,0,0,0.26458334,0,280.06666)"
         sodipodi:nodetypes="cccscccccc" />
      <path
         style="color:#000000;fill:#c8dae5;stroke-width:0.803736;stroke-linecap:round;stroke-linejoin:round;-inkscape-stroke:none"
         d="m 69.007812,314.33008 a 0.26460996,0.26460996 0 0 0 -0.07813,0.0117 l -0.851562,0.26562 a 0.26460996,0.26460996 0 0 0 -0.1875,0.25195 v 1.0586 a 0.26460996,0.26460996 0 0 0 0.1875,0.25195 l 0.851562,0.26563 a 0.26460996,0.26460996 0 0 0 0.07813,0.0117 h 0.853516 a 0.26460996,0.26460996 0 0 0 0.07813,-0.0117 l 0.853516,-0.26563 a 0.26460996,0.26460996 0 0 0 0.185547,-0.25195 v -1.0586 a 0.26460996,0.26460996 0 0 0 -0.185547,-0.25195 l -0.853516,-0.26562 a 0.26460996,0.26460996 0 0 0 -0.07813,-0.0117 z"
         id="path87653" />
      <path
         id="path152733"
         style="color:#000000;fill:#b0c3d3;fill-opacity:1;stroke-width:3.03774;stroke-linecap:round;stroke-linejoin:round;-inkscape-stroke:none"
         d="m 260.81641,129.5 a 1.0001006,1.0001006 0 0 0 -0.29493,0.043 l -3.21875,1.00391 A 1.0001006,1.0001006 0 0 0 256.59375,131.5 v 0.0273 a 1.0001006,1.0001006 0 0 1 0.22266,-0.0273 h 3.22656 a 1.0001006,1.0001006 0 0 1 0.29492,0.043 l 3.22656,1.00391 a 1.0001006,1.0001006 0 0 1 0.70117,0.95312 v 3.97266 a 1.0001006,1.0001006 0 0 0 0.0723,-0.0156 l 3.22656,-1.00391 A 1.0001006,1.0001006 0 0 0 268.26562,135.5 v -4 a 1.0001006,1.0001006 0 0 0 -0.70117,-0.95312 l -3.22656,-1.00391 a 1.0001006,1.0001006 0 0 0 -0.29492,-0.043 z"
         transform="matrix(0.26458334,0,0,0.26458334,0,280.06666)" />
      <path
         style="color:#000000;fill:#b0c3d3;stroke-width:0.803736;stroke-linecap:round;stroke-linejoin:round;-inkscape-stroke:none"
         d="m 71.242187,313.80078 c -0.435244,0 -0.792968,0.35968 -0.792968,0.79492 v 1.58594 c 0,0.43524 0.357724,0.79492 0.792968,0.79492 h 0.904297 a 0.26460996,0.26460996 0 0 0 0.265625,-0.26562 v -2.64453 a 0.26460996,0.26460996 0 0 0 -0.265625,-0.26563 z"
         id="path87659" />
      <path
         id="path145598"
         style="color:#000000;fill:#97abba;fill-opacity:1;stroke-width:3.03774;stroke-linecap:round;stroke-linejoin:round;-inkscape-stroke:none"
         d="m 269.18555,127.5 c -1.26089,0.0326 -2.3383,0.86359 -2.7461,2 0.93685,0 1.24414,0.43243 1.24414,1.00391 v 8.54101 c 0.45962,0.2889 1.00033,0.45703 1.57813,0.45703 h 3.41797 c 0.55531,0.002 1.00601,-0.44859 1.0039,-1.0039 v -9.99414 c 0.002,-0.55532 -0.44858,-1.00602 -1.0039,-1.00391 z"
         transform="matrix(0.26458334,0,0,0.26458334,0,280.06666)"
         sodipodi:nodetypes="ccccsccccc" />
      <path
         style="color:#000000;fill:#b0c3d3;stroke-width:0.803736;stroke-linecap:round;stroke-linejoin:round;-inkscape-stroke:none"
         d="m 66.722656,313.80078 a 0.26460996,0.26460996 0 0 0 -0.263672,0.26563 v 2.64453 a 0.26460996,0.26460996 0 0 0 0.263672,0.26562 h 0.904297 c 0.435244,0 0.792969,-0.35968 0.792969,-0.79492 v -1.58594 c 0,-0.43524 -0.357725,-0.79492 -0.792969,-0.79492 z"
         id="path87665" />
      <path
         id="path142345"
         style="color:#000000;fill:#97abba;fill-opacity:1;stroke-width:0.803736;stroke-linecap:round;stroke-linejoin:round;-inkscape-stroke:none"
         d="m 66.722545,313.80104 a 0.26460996,0.26460996 0 0 0 -0.263552,0.26561 v 0.26355 h 0.638723 c 0.435242,0 0.793231,0.35954 0.793231,0.79479 v 1.58595 c 0,0.0803 -0.01254,0.15763 -0.03514,0.23099 0.325104,-0.0996 0.564306,-0.40431 0.564306,-0.76016 v -1.58595 c 0,-0.43524 -0.357989,-0.79478 -0.793232,-0.79478 z" />
      <path
         style="color:#000000;fill:#c8dae5;stroke-width:0.803736;stroke-linecap:round;stroke-linejoin:round;-inkscape-stroke:none"
         d="m 62.556641,314.5957 c -0.42389,0 -0.75,0.36965 -0.75,0.79297 0,0.42333 0.32611,0.79297 0.75,0.79297 h 0.572265 a 0.26460996,0.26460996 0 0 0 0.265625,-0.25977 l 0.01367,-1.05859 a 0.26460996,0.26460996 0 0 0 -0.263672,-0.26758 z"
         id="path87294" />
      <path
         id="path133767"
         style="color:#000000;fill:#b0c3d3;fill-opacity:1;stroke-width:0.803736;stroke-linecap:round;stroke-linejoin:round;-inkscape-stroke:none"
         d="m 62.536754,314.59582 c -0.323294,0.009 -0.5867,0.23307 -0.686782,0.52917 h 0.236162 a 0.26460996,0.26460996 0 0 1 0.263549,0.26768 l -0.0098,0.75499 c 0.06831,0.0219 0.140642,0.0341 0.216524,0.0341 h 0.572577 a 0.26460996,0.26460996 0 0 0 0.265616,-0.25993 l 0.01344,-1.05834 a 0.26460996,0.26460996 0 0 0 -0.263548,-0.26768 h -0.588079 c -0.0066,0 -0.01307,-1.8e-4 -0.01963,0 z" />
      <path
         style="color:#000000;fill:#3a4d5c;stroke-width:0.803736;stroke-linecap:round;stroke-linejoin:round;-inkscape-stroke:none"
         d="m 63.613281,314.19727 c -0.423871,0 -0.748047,0.3716 -0.748047,0.79492 v 0.79297 c 0,0.42331 0.32417,0.79492 0.748047,0.79492 h 0.486328 a 0.26460996,0.26460996 0 0 0 0.263672,-0.26563 v -1.85156 a 0.26460996,0.26460996 0 0 0 -0.263672,-0.26562 z"
         id="path87540" />
      <path
         id="path136699"
         style="color:#000000;fill:#143441;fill-opacity:1;stroke-width:0.803736;stroke-linecap:round;stroke-linejoin:round;-inkscape-stroke:none"
         d="m 63.593537,314.19739 c -0.322667,0.009 -0.584745,0.23334 -0.684715,0.52917 h 0.132291 a 0.26460996,0.26460996 0 0 1 0.264068,0.26562 v 1.51722 c 0.09325,0.0452 0.197056,0.0708 0.307991,0.0708 h 0.486275 a 0.26460996,0.26460996 0 0 0 0.264067,-0.26562 v -1.85157 a 0.26460996,0.26460996 0 0 0 -0.264067,-0.26562 h -0.486275 c -0.0066,0 -0.01307,-1.7e-4 -0.01963,0 z" />
      <path
         style="color:#000000;fill:#394d5c;stroke-width:0.803736;stroke-linecap:round;stroke-linejoin:round;-inkscape-stroke:none"
         d="m 64.826172,313.00781 c -0.557833,0 -0.992188,0.48914 -0.992188,1.0586 v 2.64453 c 0,0.56944 0.434351,1.05859 0.992188,1.05859 h 0.242187 c 0.42389,0 0.75,-0.36964 0.75,-0.79297 v -3.17578 c 0,-0.42332 -0.32611,-0.79297 -0.75,-0.79297 z"
         id="path87683" />
      <path
         id="path139718"
         style="color:#000000;fill:#143441;fill-opacity:1;stroke-width:0.803736;stroke-linecap:round;stroke-linejoin:round;-inkscape-stroke:none"
         d="m 64.826019,313.0078 c -0.371115,0 -0.687038,0.21656 -0.857313,0.52917 h 0.04134 c 0.423891,0 0.749826,0.36991 0.749826,0.79323 v 3.17552 c 0,0.0894 -0.01442,0.17626 -0.04134,0.25786 0.03532,0.004 0.07102,0.006 0.107487,0.006 h 0.242361 c 0.423892,0 0.749827,-0.36991 0.749827,-0.79324 v -3.17551 c 0,-0.42332 -0.325935,-0.79324 -0.749827,-0.79324 z" />
      <path
         style="color:#000000;fill:#394d5c;stroke-width:0.803736;stroke-linecap:round;stroke-linejoin:round;-inkscape-stroke:none"
         d="m 72.103516,312.08203 c -0.42389,0 -0.75,0.36964 -0.75,0.79297 v 5.02734 c 0,0.42333 0.32611,0.79297 0.75,0.79297 h 0.484375 c 0.557837,0 0.992187,-0.48914 0.992187,-1.05859 v -4.49805 c 0,-0.56945 -0.434354,-1.05664 -0.992187,-1.05664 z"
         id="path87671" />
      <path
         id="path130824"
         style="color:#000000;fill:#143441;fill-opacity:1;stroke-width:3.03774;stroke-linecap:round;stroke-linejoin:round;-inkscape-stroke:none"
         d="m 269.68164,141.00195 v 2 c 0,1.59999 1.23383,2.9961 2.83594,2.9961 h 1.83008 c 2.10836,0 3.75,-1.84775 3.75,-4 v -0.9961 z"
         transform="matrix(0.26458334,0,0,0.26458334,0,280.06666)" />
      <path
         style="color:#000000;fill:#394d5c;stroke-width:0.803736;stroke-linecap:round;stroke-linejoin:round;-inkscape-stroke:none"
         d="m 66.28125,312.08203 c -0.557833,0 -0.992188,0.48719 -0.992188,1.05664 v 4.49805 c 0,0.56945 0.43435,1.05859 0.992188,1.05859 h 0.486328 c 0.423889,0 0.75,-0.36964 0.75,-0.79297 V 312.875 c 0,-0.42333 -0.326111,-0.79297 -0.75,-0.79297 z"
         id="path87677" />
      <path
         id="path141051"
         style="color:#000000;fill:#143441;fill-opacity:1;stroke-width:0.803736;stroke-linecap:round;stroke-linejoin:round;-inkscape-stroke:none"
         d="m 66.281228,312.08228 c -0.400704,0 -0.7375,0.25141 -0.895554,0.6041 0.112852,-0.048 0.236106,-0.0749 0.366387,-0.0749 h 0.486275 c 0.423889,0 0.749824,0.36938 0.749824,0.79271 v 5.0276 c 0,0.0827 -0.01195,0.16302 -0.03514,0.23926 0.329902,-0.089 0.564306,-0.40936 0.564306,-0.76843 v -5.0276 c 0,-0.42333 -0.325934,-0.79271 -0.749823,-0.79271 z" />
      <path
         id="path128155"
         style="color:#000000;fill:#143441;fill-opacity:1;stroke-width:3.03774;stroke-linecap:round;stroke-linejoin:round;-inkscape-stroke:none"
         d="m 242.09375,141.00195 c 0.68125,0.90483 1.72424,1.49805 2.91797,1.49805 h 0.91601 c 1.06313,0 1.96373,-0.61661 2.44922,-1.49805 z"
         transform="matrix(0.26458334,0,0,0.26458334,0,280.06666)" />
      <path
         id="path129296"
         style="color:#000000;fill:#143441;fill-opacity:1;stroke-width:3.03774;stroke-linecap:round;stroke-linejoin:round;-inkscape-stroke:none"
         d="m 246.76172,141.00195 v 0.9961 c 0,2.15225 1.64163,4 3.75,4 h 1.83789 c 1.6021,0 2.83398,-1.39611 2.83398,-2.9961 v -2 z"
         transform="matrix(0.26458334,0,0,0.26458334,0,280.06666)" />
      <path
         id="path146775"
         style="color:#000000;fill:#143441;fill-opacity:1;stroke-width:3.03774;stroke-linecap:round;stroke-linejoin:round;-inkscape-stroke:none"
         d="m 272.51758,121.00391 c -1.28962,0 -2.34058,0.90416 -2.70117,2.09179 0.22314,-0.0602 0.45797,-0.0918 0.70117,-0.0918 h 1.83008 c 2.10834,0 3.75,1.83993 3.75,3.99218 v 17.00196 c 0,0.6084 -0.13137,1.1918 -0.36719,1.71679 1.40144,-0.59639 2.36719,-2.06597 2.36719,-3.71679 v -17.00196 c 0,-2.15225 -1.64166,-3.99218 -3.75,-3.99218 z"
         transform="matrix(0.26458334,0,0,0.26458334,0,280.06666)" />
      <path
         id="path130908"
         style="color:#000000;fill:#143441;fill-opacity:1;stroke-width:3.03774;stroke-linecap:round;stroke-linejoin:round;-inkscape-stroke:none"
         d="m 276.48438,141.00195 c 0.48552,0.88134 1.38422,1.49805 2.44726,1.49805 h 0.91602 c 1.19337,0 2.23671,-0.59367 2.91796,-1.49805 z"
         transform="matrix(0.26458334,0,0,0.26458334,0,280.06666)" />
      <path
         id="path148225"
         style="color:#000000;fill:#143441;fill-opacity:1;stroke-width:3.03774;stroke-linecap:round;stroke-linejoin:round;-inkscape-stroke:none"
         d="m 278.93164,124.50195 c -1.28893,0 -2.33612,0.90512 -2.69726,2.0918 0.22205,-0.0596 0.45539,-0.0918 0.69726,-0.0918 h 0.91602 c 2.10834,0 3.75,1.84967 3.75,4.00196 v 9.99414 c 0,0.60901 -0.13091,1.19334 -0.36719,1.71875 1.40121,-0.59653 2.36719,-2.06812 2.36719,-3.71875 v -9.99414 c 0,-2.15229 -1.64166,-4.00196 -3.75,-4.00196 z"
         transform="matrix(0.26458334,0,0,0.26458334,0,280.06666)" />
      <path
         style="color:#000000;fill:#394d5c;stroke-width:0.803736;stroke-linecap:round;stroke-linejoin:round;-inkscape-stroke:none"
         d="m 61.787109,317.90234 c -0.256111,0 -0.469418,0.16232 -0.558593,0.36719 -0.08918,0.20487 -0.06124,0.47076 0.113281,0.6582 l 0.335937,0.36133 a 0.26460996,0.26460996 0 0 0 0,0.002 c 0.164921,0.17706 0.396549,0.27734 0.638672,0.27734 h 14.310547 c 0.242071,0 0.473725,-0.10214 0.638672,-0.2793 l 0.337891,-0.36133 c 0.174518,-0.18744 0.202456,-0.45333 0.113281,-0.6582 -0.08917,-0.20487 -0.304436,-0.36719 -0.560547,-0.36719 z"
         id="path89477" />
      <path
         id="path90048"
         style="color:#000000;fill:#5aabdd;stroke-width:3.03774;stroke-linecap:round;stroke-linejoin:round;-inkscape-stroke:none"
         d="m 242.57617,151.00391 c -1.645,0 -3.0039,1.35109 -3.0039,2.99609 v 27.00391 h 46.0039 V 154 c 0,-1.645 -1.35891,-2.99609 -3.0039,-2.99609 z"
         transform="matrix(0.26458334,0,0,0.26458334,0,280.06666)"
         sodipodi:nodetypes="ssccsss" />
      <path
         id="path104410"
         style="color:#000000;fill:#3485d0;fill-opacity:1;stroke-width:3.03774;stroke-linecap:round;stroke-linejoin:round;-inkscape-stroke:none"
         d="m 242.57617,151.00391 c -1.34433,0 -2.49638,0.90319 -2.87305,2.13086 0.27676,-0.085 0.57021,-0.13086 0.87305,-0.13086 h 39.9961 c 1.64499,0 3.0039,1.35109 3.0039,2.99609 v 25.00391 h 2 V 154 c 0,-1.645 -1.35891,-2.99609 -3.0039,-2.99609 z"
         transform="matrix(0.26458334,0,0,0.26458334,0,280.06666)" />
      <path
         id="path90444"
         style="color:#000000;fill:#2c5eb5;stroke-width:3.03774;stroke-linecap:round;stroke-linejoin:round;-inkscape-stroke:none"
         d="m 257.27344,166.00391 c -1.48142,0 -2.70117,1.21978 -2.70117,2.70117 v 12.29883 h 16.0039 v -12.29883 c 0,-1.48139 -1.22757,-2.70117 -2.70898,-2.70117 z"
         transform="matrix(0.26458334,0,0,0.26458334,0,280.06666)"
         sodipodi:nodetypes="ssccsss" />
      <path
         id="path10090"
         style="color:#000000;fill:#163f64;fill-opacity:1;stroke-width:3.03774;stroke-linecap:round;stroke-linejoin:round;-inkscape-stroke:none"
         d="m 261.57031,166.00391 v 15 h 2 v -15 z"
         transform="matrix(0.26458334,0,0,0.26458334,0,280.06666)" />
      <path
         id="path10274"
         style="color:#000000;fill:#2c5eb5;stroke-width:3.03774;stroke-linecap:round;stroke-linejoin:round;-inkscape-stroke:none"
         d="m 239.57227,162.00195 v 2 h 10.00195 a 1.0000006,1.0000006 0 0 0 0.99609,-1.0039 1.0000006,1.0000006 0 0 0 -0.99609,-0.9961 z"
         transform="matrix(0.26458334,0,0,0.26458334,0,280.06666)" />
      <path
         id="path10356"
         style="color:#000000;fill:#2c5eb5;stroke-width:3.03774;stroke-linecap:round;stroke-linejoin:round;-inkscape-stroke:none"
         d="m 246.84766,162.00195 a 1.0000006,1.0000006 0 0 0 -0.61719,0.28711 c -2.21853,2.21858 -4.43858,4.43859 -6.6582,6.65821 v 2.82812 c 2.68986,-2.68985 5.37773,-5.37768 8.06835,-8.06836 a 1.0000006,1.0000006 0 0 0 0,-1.41797 1.0000006,1.0000006 0 0 0 -0.79296,-0.28711 z"
         transform="matrix(0.26458334,0,0,0.26458334,0,280.06666)" />
      <path
         style="color:#000000;fill:#2c5eb5;stroke-width:0.803736;stroke-linecap:round;stroke-linejoin:round;-inkscape-stroke:none"
         d="m 65.900391,324.25195 c -0.435233,0 -0.792969,0.35774 -0.792969,0.79297 v 1.58789 c 0,0.43524 0.357736,0.79492 0.792969,0.79492 h 0.265625 c 0.435232,0 0.792968,-0.35968 0.792968,-0.79492 v -1.58789 c 0,-0.43523 -0.357736,-0.79297 -0.792968,-0.79297 z"
         id="path89856" />
      <path
         id="path12402"
         style="color:#000000;fill:#8ed1f7;fill-opacity:1;stroke-width:3.03774;stroke-linecap:round;stroke-linejoin:round;-inkscape-stroke:none"
         d="m 277.57422,162.23047 a 1.0000006,1.0000006 0 0 0 -0.70899,0.29492 l -3.53515,3.53711 a 1.0000006,1.0000006 0 0 0 0,1.41016 1.0000006,1.0000006 0 0 0 1.41601,0 l 3.53711,-3.53711 a 1.0000006,1.0000006 0 0 0 0,-1.41016 1.0000006,1.0000006 0 0 0 -0.70898,-0.29492 z m 2,3.77344 a 1.0000006,1.0000006 0 0 0 -0.70899,0.28711 l -2.18554,2.18554 a 1.0000006,1.0000006 0 0 0 0,1.41602 1.0000006,1.0000006 0 0 0 1.41797,0 l 2.18554,-2.1836 a 1.0000006,1.0000006 0 0 0 0,-1.41796 1.0000006,1.0000006 0 0 0 -0.70898,-0.28711 z"
         transform="matrix(0.26458334,0,0,0.26458334,0,280.06666)" />
      <path
         style="color:#000000;fill:#163f64;fill-opacity:1;stroke-width:0.803736;stroke-linecap:round;stroke-linejoin:round;-inkscape-stroke:none"
         d="m 68.677573,326.10312 a 0.2645835,0.2645835 0 0 0 -0.263672,0.26563 0.2645835,0.2645835 0 0 0 0.263672,0.26367 0.2645835,0.2645835 0 0 0 0.265625,-0.26367 0.2645835,0.2645835 0 0 0 -0.265625,-0.26563 z"
         id="path12560" />
      <path
         style="color:#000000;fill:#163f64;fill-opacity:1;stroke-width:0.803736;stroke-linecap:round;stroke-linejoin:round;-inkscape-stroke:none"
         d="m 70.265073,326.10312 a 0.2645835,0.2645835 0 0 0 -0.263672,0.26563 0.2645835,0.2645835 0 0 0 0.263672,0.26367 0.2645835,0.2645835 0 0 0 0.265625,-0.26367 0.2645835,0.2645835 0 0 0 -0.265625,-0.26563 z"
         id="path12802" />
      <path
         id="path14068"
         style="color:#000000;fill:#394d5c;stroke-width:3.03774;stroke-linecap:round;stroke-linejoin:round;-inkscape-stroke:none"
         d="M 255.57617,151.00391 V 156 a 1.0000006,1.0000006 0 0 0 0.9961,0.99805 1.0000006,1.0000006 0 0 0 1.0039,-0.99805 v -4.99609 z m 11.9961,0 V 156 a 1.0000006,1.0000006 0 0 0 1.0039,0.99805 1.0000006,1.0000006 0 0 0 0.9961,-0.99805 v -4.99609 z"
         transform="matrix(0.26458334,0,0,0.26458334,0,280.06666)" />
      <path
         style="color:#000000;fill:#2c5eb5;stroke-width:0.803736;stroke-linecap:round;stroke-linejoin:round;-inkscape-stroke:none"
         d="m 66.033203,322.92969 a 0.2645835,0.2645835 0 0 0 -0.265625,0.26367 v 0.5293 a 0.2645835,0.2645835 0 0 0 0.265625,0.26562 0.2645835,0.2645835 0 0 0 0.263672,-0.26562 v -0.5293 a 0.2645835,0.2645835 0 0 0 -0.263672,-0.26367 z"
         id="path34334" />
      <path
         style="color:#000000;fill:#394d5c;fill-opacity:1;stroke-width:0.803736;stroke-linecap:round;stroke-linejoin:round;-inkscape-stroke:none"
         d="m 61.535156,327.95703 a 0.2645835,0.2645835 0 0 0 -0.265625,0.26367 0.2645835,0.2645835 0 0 0 0.265625,0.26563 h 15.875 a 0.2645835,0.2645835 0 0 0 0.263672,-0.26563 0.2645835,0.2645835 0 0 0 -0.263672,-0.26367 z"
         id="path35009" />
      <path
         style="color:#000000;fill:#394d5c;stroke-width:0.803736;stroke-linecap:round;stroke-linejoin:round;-inkscape-stroke:none"
         d="m 67.355469,321.07617 c -0.289119,0 -0.529297,0.24018 -0.529297,0.5293 v 1.32422 c 0,0.28912 0.240178,0.52929 0.529297,0.52929 h 4.234375 c 0.289119,0 0.529297,-0.24017 0.529297,-0.52929 v -1.32422 c 0,-0.28912 -0.240178,-0.5293 -0.529297,-0.5293 z"
         id="path90248" />
      <path
         id="path110384"
         style="color:#000000;fill:#143441;fill-opacity:1;stroke-width:3.03774;stroke-linecap:round;stroke-linejoin:round;-inkscape-stroke:none"
         d="m 255.57617,151.00391 v 2 h 2 v -2 z m 11.9961,0 v 2 h 2 v -2 z"
         transform="matrix(0.26458334,0,0,0.26458334,0,280.06666)" />
      <path
         id="path113745"
         style="color:#000000;fill:#143441;fill-opacity:1;stroke-width:3.03774;stroke-linecap:round;stroke-linejoin:round;-inkscape-stroke:none"
         d="m 254.57227,154.99609 c -1.09209,0 -1.99894,0.90813 -2,2 h 16.0039 c 1.09274,0 2,0.90922 2,2.00196 v 5.0039 c 1.09274,0 2,-0.90726 2,-2 v -5.0039 c 0,-1.09274 -0.90726,-2.00196 -2,-2.00196 z"
         transform="matrix(0.26458334,0,0,0.26458334,0,280.06666)" />
      <path
         id="path118596"
         style="color:#000000;fill:#163f64;fill-opacity:1;stroke-width:3.03774;stroke-linecap:round;stroke-linejoin:round;-inkscape-stroke:none"
         d="m 244.51758,164.00195 c -0.6666,0.66661 -1.33327,1.33327 -2,2 h 2.82812 c 0.66667,-0.66666 1.3331,-1.33308 2,-2 z"
         transform="matrix(0.26458334,0,0,0.26458334,0,280.06666)" />
      <path
         id="path120046"
         style="color:#000000;fill:#163f64;fill-opacity:1;stroke-width:0.803736;stroke-linecap:round;stroke-linejoin:round;-inkscape-stroke:none"
         d="m 65.880217,324.25208 c -0.346715,0.009 -0.64099,0.24484 -0.738455,0.56327 0.0728,-0.0223 0.149723,-0.0341 0.229444,-0.0341 h 0.265616 c 0.435231,0 0.793234,0.35749 0.793234,0.79272 v 1.58802 c 0,0.0801 -0.01265,0.15776 -0.03514,0.23099 0.324882,-0.0997 0.564306,-0.40447 0.564306,-0.76016 v -1.58802 c 0,-0.43523 -0.358002,-0.79271 -0.793234,-0.79271 h -0.265615 c -0.0068,0 -0.01339,-1.8e-4 -0.02016,0 z" />
      <path
         id="path126939"
         style="color:#000000;fill:#163f64;fill-opacity:1;stroke-width:3.03774;stroke-linecap:round;stroke-linejoin:round;-inkscape-stroke:none"
         d="m 257.27344,166.00391 c -1.26532,0 -2.33652,0.89152 -2.62305,2.07421 0.20036,-0.0481 0.40885,-0.0742 0.62305,-0.0742 h 10.59375 c 1.48141,0 2.70898,1.21978 2.70898,2.70117 v 10.29883 h 2 v -12.29883 c 0,-1.48139 -1.22757,-2.70117 -2.70898,-2.70117 z"
         transform="matrix(0.26458334,0,0,0.26458334,0,280.06666)" />
    </g>
  </g>
</svg>
